<svg id="clock-face" xmlns="http://www.w3.org/2000/svg" width="4.5in" height="4.5in" viewBox="0 0 323.4 324.9"><title>clock-face</title><path d="M165.2,16.1a148,148,0,1,0,148,148A148,148,0,0,0,165.2,16.1Zm84.3,92.6,25.6-14.8a5.9,5.9,0,0,1,8.1,2.2,6,6,0,0,1-2.2,8.1l-25.6,14.7a5.9,5.9,0,1,1-5.9-10.2ZM159.3,33.8a6,6,0,0,1,5.9-5.9,5.9,5.9,0,0,1,5.9,5.9V63.4a5.9,5.9,0,0,1-5.9,6,6,6,0,0,1-5.9-6ZM97.2,46.2a5.8,5.8,0,0,1,8,2.1L120,74a5.9,5.9,0,0,1-2.1,8.1,6,6,0,0,1-8.1-2.2L95,54.3A5.9,5.9,0,0,1,97.2,46.2ZM29.1,164.1a5.9,5.9,0,0,1,5.9-6H64.6a5.8,5.8,0,0,1,5.9,5.9,5.9,5.9,0,0,1-5.9,5.9H35A5.9,5.9,0,0,1,29.1,164.1ZM81,219.5,55.4,234.3a5.9,5.9,0,1,1-5.9-10.2l25.6-14.8a5.9,5.9,0,0,1,8.1,2.1A6,6,0,0,1,81,219.5Zm2.2-102.8a5.9,5.9,0,0,1-8.1,2.2L49.5,104.1a5.9,5.9,0,1,1,5.9-10.3L81,108.6A5.9,5.9,0,0,1,83.2,116.7ZM120,254.2l-14.8,25.6A5.9,5.9,0,1,1,95,273.9l14.8-25.6a5.9,5.9,0,0,1,8.1-2.2A6,6,0,0,1,120,254.2Zm51.1,40.1a5.9,5.9,0,1,1-11.8,0V264.7a5.9,5.9,0,0,1,11.8,0ZM233.3,282a5.9,5.9,0,0,1-8.1-2.1l-14.8-25.7a5.9,5.9,0,1,1,10.2-5.9L235.4,274A5.8,5.8,0,0,1,233.3,282Zm2.2-227.7L220.7,79.9A5.9,5.9,0,1,1,210.5,74l14.8-25.6a5.9,5.9,0,1,1,10.2,5.9Zm47.6,177.9a5.9,5.9,0,0,1-8.1,2.2l-25.6-14.8a5.9,5.9,0,0,1,5.9-10.3L281,224.1A5.9,5.9,0,0,1,283.1,232.2Zm12.4-62.1H265.9a6,6,0,0,1,0-11.9h29.6a6,6,0,0,1,0,11.9Z" fill="#fff"/></svg>