<svg id="clock" xmlns="http://www.w3.org/2000/svg" width="352.7" height="347.3" viewBox="0 0 352.7 347.3"><title>clock-face</title><path d="M177.3,27.3a148,148,0,1,0,148,148A148,148,0,0,0,177.3,27.3Zm84.3,92.6,25.6-14.8a5.9,5.9,0,0,1,5.9,10.3l-25.6,14.8a5.9,5.9,0,1,1-5.9-10.3ZM171.4,45.1a6,6,0,0,1,11.9,0V74.7a6,6,0,0,1-11.9,0ZM109.3,57.4a5.8,5.8,0,0,1,8,2.2l14.8,25.6a5.9,5.9,0,1,1-10.2,5.9L107.1,65.5A5.9,5.9,0,0,1,109.3,57.4ZM41.2,175.3a5.8,5.8,0,0,1,5.9-5.9H76.7a5.9,5.9,0,0,1,5.9,5.9,5.8,5.8,0,0,1-5.9,5.9H47.1A5.8,5.8,0,0,1,41.2,175.3Zm51.9,55.5L67.5,245.6a6,6,0,0,1-8.1-2.2,5.9,5.9,0,0,1,2.2-8.1l25.6-14.8a5.9,5.9,0,0,1,5.9,10.3ZM95.3,128a5.9,5.9,0,0,1-8.1,2.1L61.6,115.3a6,6,0,0,1-2.2-8.1,5.9,5.9,0,0,1,8.1-2.1l25.6,14.8A5.9,5.9,0,0,1,95.3,128Zm36.8,137.4-14.8,25.7a5.9,5.9,0,1,1-10.2-6l14.8-25.6a6,6,0,0,1,8.1-2.2A5.9,5.9,0,0,1,132.1,265.4Zm51.1,40.2a5.8,5.8,0,0,1-5.9,5.9,5.9,5.9,0,0,1-5.9-5.9V276a5.9,5.9,0,1,1,11.8,0Zm62.2-12.3a6,6,0,0,1-8.1-2.2l-14.8-25.6a5.9,5.9,0,0,1,10.3-5.9l14.7,25.6A5.9,5.9,0,0,1,245.4,293.3Zm2.2-227.8L232.8,91.2a5.9,5.9,0,0,1-8.1,2.1,5.9,5.9,0,0,1-2.1-8.1l14.8-25.6a5.9,5.9,0,0,1,8.1-2.1A5.8,5.8,0,0,1,247.6,65.5Zm47.6,178a5.9,5.9,0,0,1-8.1,2.1l-25.6-14.8a6,6,0,0,1-2.2-8.1,5.9,5.9,0,0,1,8.1-2.1l25.7,14.8A5.9,5.9,0,0,1,295.2,243.5Zm12.4-62.2H278a5.9,5.9,0,0,1-5.9-5.9,5.8,5.8,0,0,1,5.9-5.9h29.6a5.8,5.8,0,0,1,5.9,5.9A5.9,5.9,0,0,1,307.6,181.3Z" fill="#fff"/></svg>